<svg version="1.1" id="Layer_1" xmlns="http://www.w3.org/2000/svg" xmlns:xlink="http://www.w3.org/1999/xlink" x="0px" y="0px"
	 width="100%" viewBox="0 0 423 423" enable-background="new 0 0 423 423" xml:space="preserve">
<path fill="none" opacity="1.000000" stroke="none" 
	d="
M279.000000,424.000000 
	C186.000015,424.000000 93.500023,424.000000 1.000025,424.000000 
	C1.000017,283.000031 1.000017,142.000061 1.000008,1.000063 
	C141.999954,1.000042 282.999908,1.000042 423.999908,1.000021 
	C423.999939,141.999939 423.999939,282.999878 423.999969,423.999908 
	C375.833344,424.000000 327.666656,424.000000 279.000000,424.000000 
M129.164429,91.373825 
	C129.109604,111.840157 129.020065,132.306473 129.007339,152.772827 
	C128.982391,192.882019 128.989792,232.991241 129.046585,273.100372 
	C129.048447,274.418427 129.732574,275.735474 130.713715,276.993134 
	C131.120895,276.942413 131.528076,276.891693 132.622803,276.850281 
	C141.850540,269.558533 151.115097,262.312683 160.289871,254.954865 
	C164.616791,251.484879 168.771393,247.800034 173.931244,244.044647 
	C192.695297,243.983810 211.459366,243.922974 231.029373,243.986298 
	C235.861267,243.266647 240.836197,243.052536 245.498489,241.733398 
	C259.993378,237.632278 274.278473,232.695862 286.037140,222.896393 
	C293.065399,217.039169 300.116455,210.947189 304.298096,202.408920 
	C308.835541,193.144150 314.058014,184.172531 313.110992,173.177002 
	C312.529144,166.421570 313.669464,159.358414 312.135956,152.883560 
	C310.086945,144.231995 307.552826,135.333328 301.118805,128.543625 
	C294.505402,121.564629 288.274017,113.984909 280.682129,108.246971 
	C274.547882,103.610741 266.810181,100.864319 259.467194,98.129585 
	C253.138245,95.772514 246.392914,94.481613 239.773010,92.977531 
	C235.943115,92.107353 231.997177,91.747894 227.153259,91.008865 
	C194.773148,91.058884 162.393021,91.108894 129.164429,91.373825 
M146.923752,307.625885 
	C145.972015,305.946198 145.248444,304.074677 144.026993,302.621735 
	C139.901505,297.714508 134.770767,296.288605 128.219940,296.771393 
	C120.750412,297.321869 116.072357,299.196991 113.613960,305.962128 
	C112.514336,308.988159 112.233017,312.394104 112.046417,315.654297 
	C111.421570,326.571350 117.476326,331.425323 125.326111,333.247498 
	C134.025299,335.266785 140.680267,332.688904 145.517715,325.787628 
	C149.183044,320.558502 150.422623,314.553009 146.923752,307.625885 
z"/>
<path fill="#ED723F" opacity="1.000000" stroke="none" 
	d="
M173.004059,244.212524 
	C168.771393,247.800034 164.616791,251.484879 160.289871,254.954865 
	C151.115097,262.312683 141.850540,269.558533 132.140915,276.465668 
	C131.441147,274.108215 131.034119,272.135468 131.032928,270.162476 
	C130.998856,213.374969 131.001633,156.587433 131.010559,99.799889 
	C131.011612,93.066376 131.096863,92.994881 138.151718,92.992485 
	C165.463028,92.983231 192.774384,93.008484 220.085571,92.952019 
	C222.371796,92.947296 224.656967,92.429024 227.162354,92.015907 
	C227.622543,91.641174 227.862991,91.399887 228.103455,91.158592 
	C231.997177,91.747894 235.943115,92.107353 239.773010,92.977531 
	C246.392914,94.481613 253.138245,95.772514 259.467194,98.129585 
	C266.810181,100.864319 274.547882,103.610741 280.682129,108.246971 
	C288.274017,113.984909 294.505402,121.564629 301.118805,128.543625 
	C307.552826,135.333328 310.086945,144.231995 312.135956,152.883560 
	C313.669464,159.358414 312.529144,166.421570 313.110992,173.177002 
	C314.058014,184.172531 308.835541,193.144150 304.298096,202.408920 
	C300.116455,210.947189 293.065399,217.039169 286.037140,222.896393 
	C274.278473,232.695862 259.993378,237.632278 245.498489,241.733398 
	C240.836197,243.052536 235.861267,243.266647 230.440170,243.691406 
	C229.507599,243.204544 229.164215,243.012589 228.468384,242.641449 
	C227.305252,242.317245 226.494843,242.047256 225.683929,242.045761 
	C209.786270,242.016190 193.888489,241.998428 177.990967,242.049942 
	C176.715576,242.054077 175.441879,242.579437 173.944458,243.060272 
	C173.482376,243.576126 173.243225,243.894333 173.004059,244.212524 
M184.054474,169.061844 
	C185.472549,171.144394 186.890625,173.226944 188.378693,175.412308 
	C192.532928,173.220779 197.097794,171.707062 195.760971,166.531052 
	C195.115829,164.033234 192.681992,161.493866 189.004822,161.991013 
	C185.260223,162.497269 183.359024,164.304153 184.054474,169.061844 
M226.525360,171.823853 
	C229.404358,168.003708 228.162811,164.567627 224.635010,162.499283 
	C221.976334,160.940475 218.074448,161.430450 216.600861,164.347214 
	C214.313263,168.875092 216.766678,172.432907 221.117340,175.119110 
	C222.577713,174.146851 224.174240,173.083954 226.525360,171.823853 
M249.617706,162.910172 
	C249.117096,164.068985 248.894897,165.505035 248.066208,166.337143 
	C244.981140,169.434998 248.969284,170.477478 249.906586,172.080048 
	C250.581284,173.233688 253.128540,174.233093 254.478409,173.887375 
	C260.206909,172.420258 260.942444,168.762329 257.556549,163.939926 
	C255.300125,160.726212 252.731812,162.379074 249.617706,162.910172 
z"/>
<path fill="#ED723E" opacity="1.000000" stroke="none" 
	d="
M146.994385,308.024231 
	C150.422623,314.553009 149.183044,320.558502 145.517715,325.787628 
	C140.680267,332.688904 134.025299,335.266785 125.326111,333.247498 
	C117.476326,331.425323 111.421570,326.571350 112.046417,315.654297 
	C112.233017,312.394104 112.514336,308.988159 113.613960,305.962128 
	C116.072357,299.196991 120.750412,297.321869 128.219940,296.771393 
	C134.770767,296.288605 139.901505,297.714508 144.026993,302.621735 
	C145.248444,304.074677 145.972015,305.946198 146.994385,308.024231 
z"/>
<path fill="#EA5F25" opacity="1.000000" stroke="none" 
	d="
M226.942627,92.149338 
	C224.656967,92.429024 222.371796,92.947296 220.085571,92.952019 
	C192.774384,93.008484 165.463028,92.983231 138.151718,92.992485 
	C131.096863,92.994881 131.011612,93.066376 131.010559,99.799889 
	C131.001633,156.587433 130.998856,213.374969 131.032928,270.162476 
	C131.034119,272.135468 131.441147,274.108215 131.797150,276.461029 
	C131.528076,276.891693 131.120895,276.942413 130.350220,276.554626 
	C130.004730,214.761932 130.022751,153.407715 130.505814,92.022774 
	C162.961441,92.044487 194.952042,92.096916 226.942627,92.149338 
z"/>
<path fill="#F3B49B" opacity="1.000000" stroke="none" 
	d="
M130.040771,92.053490 
	C130.022751,153.407715 130.004730,214.761932 130.042679,276.584595 
	C129.732574,275.735474 129.048447,274.418427 129.046585,273.100372 
	C128.989792,232.991241 128.982391,192.882019 129.007339,152.772827 
	C129.020065,132.306473 129.109604,111.840157 129.590988,91.490135 
	C130.017548,91.606445 130.040771,92.053490 130.040771,92.053490 
z"/>
<path fill="#F49371" opacity="1.000000" stroke="none" 
	d="
M130.505814,92.022774 
	C130.040771,92.053490 130.017548,91.606445 130.015228,91.382675 
	C162.393021,91.108894 194.773148,91.058884 227.628357,91.083725 
	C227.862991,91.399887 227.622543,91.641174 227.162354,92.015900 
	C194.952042,92.096916 162.961441,92.044487 130.505814,92.022774 
z"/>
<path fill="#F49371" opacity="1.000000" stroke="none" 
	d="
M228.820847,242.820648 
	C229.164215,243.012589 229.507599,243.204544 230.037201,243.629318 
	C211.459366,243.922974 192.695297,243.983810 173.467651,244.128586 
	C173.243225,243.894333 173.482376,243.576126 174.396942,243.072601 
	C192.988525,242.865051 210.904678,242.842850 228.820847,242.820648 
z"/>
<path fill="none" opacity="1.000000" stroke="none" 
	d="
M184.046021,168.652924 
	C183.359024,164.304153 185.260223,162.497269 189.004822,161.991013 
	C192.681992,161.493866 195.115829,164.033234 195.760971,166.531052 
	C197.097794,171.707062 192.532928,173.220779 188.378693,175.412308 
	C186.890625,173.226944 185.472549,171.144394 184.046021,168.652924 
z"/>
<path fill="none" opacity="1.000000" stroke="none" 
	d="
M226.148071,171.922455 
	C224.174240,173.083954 222.577713,174.146851 221.117340,175.119110 
	C216.766678,172.432907 214.313263,168.875092 216.600861,164.347214 
	C218.074448,161.430450 221.976334,160.940475 224.635010,162.499283 
	C228.162811,164.567627 229.404358,168.003708 226.148071,171.922455 
z"/>
<path fill="none" opacity="1.000000" stroke="none" 
	d="
M249.905655,162.617615 
	C252.731812,162.379074 255.300125,160.726212 257.556549,163.939926 
	C260.942444,168.762329 260.206909,172.420258 254.478409,173.887375 
	C253.128540,174.233093 250.581284,173.233688 249.906586,172.080048 
	C248.969284,170.477478 244.981140,169.434998 248.066208,166.337143 
	C248.894897,165.505035 249.117096,164.068985 249.905655,162.617615 
z"/>
<path fill="#EA5F25" opacity="1.000000" stroke="none" 
	d="
M228.468384,242.641449 
	C210.904678,242.842850 192.988525,242.865051 174.619873,242.874924 
	C175.441879,242.579437 176.715576,242.054077 177.990967,242.049942 
	C193.888489,241.998428 209.786270,242.016190 225.683929,242.045761 
	C226.494843,242.047256 227.305252,242.317245 228.468384,242.641449 
z"/>
</svg>