<svg version="1.1" id="Layer_1" xmlns="http://www.w3.org/2000/svg" xmlns:xlink="http://www.w3.org/1999/xlink" x="0px" y="0px"
	 width="100%" viewBox="0 0 422 422" enable-background="new 0 0 422 422" xml:space="preserve">
<path fill="none" opacity="1.000000" stroke="none" 
	d="
M231.000000,423.000000 
	C154.000015,423.000000 77.500015,423.000000 1.000021,423.000000 
	C1.000014,282.333374 1.000014,141.666718 1.000007,1.000058 
	C141.666626,1.000039 282.333252,1.000039 422.999908,1.000019 
	C422.999939,141.666611 422.999939,282.333221 422.999969,422.999908 
	C359.166656,423.000000 295.333344,423.000000 231.000000,423.000000 
M212.881958,219.213715 
	C212.881958,219.213715 213.044418,219.208862 213.514374,219.912796 
	C218.986450,219.937241 224.460907,220.071243 229.929825,219.951324 
	C234.278671,219.855942 238.620728,219.450180 243.731247,219.359848 
	C243.207870,220.242569 242.774353,221.814835 242.146622,221.896637 
	C237.918732,222.447525 233.655121,222.847580 229.392899,222.987991 
	C217.351013,223.384720 215.982239,224.704437 215.997162,236.527756 
	C216.004654,242.460220 218.473480,244.584091 226.349991,245.740356 
	C227.605667,245.765030 228.861343,245.789703 231.025711,245.954819 
	C244.319168,245.911301 257.612610,245.867798 271.650177,245.971924 
	C272.783356,245.681793 273.916504,245.391647 275.814453,245.018753 
	C284.528229,242.425095 284.528564,242.425110 285.000916,233.481354 
	C285.018433,233.149796 284.984009,232.812836 285.028351,232.485779 
	C285.764374,227.056412 283.322388,224.289902 277.757904,223.965485 
	C270.911835,223.566345 264.075134,223.006638 256.600555,222.470901 
	C257.139191,221.237213 257.587036,220.211411 258.492493,219.902008 
	C261.619232,219.930038 264.748383,220.049576 267.872223,219.967499 
	C274.860657,219.783936 281.846436,219.499954 288.950256,218.327591 
	C288.912201,215.861969 288.874146,213.396362 289.187042,210.241226 
	C289.302124,210.121536 289.440857,210.016068 289.524261,209.877365 
	C289.583832,209.778275 289.569214,209.634567 289.587708,209.510803 
	C287.998322,209.343704 286.409119,209.033646 284.819489,209.031143 
	C264.065643,208.998520 243.311661,209.027222 222.557892,208.972900 
	C221.036469,208.968903 219.516418,208.444183 218.860794,208.025665 
	C228.055222,206.769226 237.305161,205.816864 246.425156,204.152573 
	C252.822464,202.985153 258.824829,202.063263 265.306458,204.424957 
	C270.096252,206.170212 275.493256,206.355865 280.654175,206.923340 
	C282.731567,207.151749 285.495789,207.915695 286.019867,204.279663 
	C286.502625,200.930420 285.229919,198.836838 282.010742,198.068024 
	C278.765320,197.292953 275.469421,196.729309 271.214569,195.876343 
	C276.693939,192.214767 282.043976,189.746170 282.178070,182.335068 
	C282.509064,181.834900 282.840027,181.334732 283.295044,180.647156 
	C280.915619,180.773270 278.917328,180.968826 276.918823,180.971130 
	C258.311279,180.992691 239.703629,180.962067 221.096313,181.030029 
	C220.069824,181.033768 219.046021,181.776367 218.004776,183.052933 
	C218.055344,185.728424 218.105911,188.403900 218.463303,191.883774 
	C223.614380,191.921921 228.767273,191.887375 233.916046,192.017151 
	C239.980484,192.169998 246.041336,192.465225 251.298141,192.944794 
	C250.213181,193.278137 249.148483,193.718842 248.040085,193.927887 
	C238.925507,195.646805 229.809143,197.358109 220.678665,198.989700 
	C218.003326,199.467773 216.593719,200.684509 216.975296,203.583511 
	C217.169357,205.057922 217.104233,206.566467 216.795364,208.723740 
	C215.248886,209.123108 213.702393,209.522461 212.053864,210.460693 
	C212.094269,210.638992 212.134674,210.817307 212.031113,211.862991 
	C212.078888,213.910522 212.126663,215.958054 212.098328,218.483078 
	C212.243683,218.801315 212.488144,218.993332 212.881958,219.213715 
M336.963318,208.336075 
	C337.011963,207.567795 337.060608,206.799515 337.534424,206.024521 
	C337.534424,206.024521 337.952393,206.102692 338.444580,206.815384 
	C343.423767,206.879044 348.405457,207.073181 353.381653,206.978729 
	C363.183594,206.792709 363.366608,209.430466 362.677582,196.160690 
	C345.542053,196.160690 328.406494,196.160690 311.183533,196.160690 
	C311.043701,194.190613 310.939240,192.718872 311.392944,191.086380 
	C311.586365,191.095139 311.779785,191.103897 312.363617,191.894516 
	C329.223328,191.894516 346.083038,191.894516 362.942749,191.894516 
	C363.264984,191.689972 363.587250,191.485413 363.909485,191.280869 
	C363.265015,191.120529 362.620514,190.960175 361.992126,189.941513 
	C361.662933,187.252914 361.333740,184.564316 360.566833,181.125763 
	C340.159821,181.080704 319.752777,181.024277 299.345795,181.037109 
	C298.617981,181.037567 297.890594,181.722870 297.029358,183.006454 
	C297.020477,189.653732 297.101105,196.302902 296.962372,202.947464 
	C296.899323,205.968063 298.076508,207.106842 301.074768,207.043381 
	C307.220795,206.913284 313.375214,206.895996 319.517334,207.098984 
	C320.754120,207.139862 321.951752,208.364334 322.672333,209.777405 
	C313.937531,209.851517 305.201874,209.881714 296.468689,210.043350 
	C295.028198,210.070007 293.598358,210.672607 292.030640,211.900574 
	C292.075439,214.602753 292.120239,217.304916 292.402313,220.846848 
	C317.274994,220.898956 342.147705,220.958328 367.020386,220.960419 
	C367.629272,220.960480 368.238251,220.324493 368.990845,219.100143 
	C368.941589,216.412903 368.892365,213.725647 368.607208,210.193542 
	C360.198761,210.128922 351.789215,210.121765 343.382629,209.960587 
	C341.192444,209.918579 339.011475,209.396423 336.963318,208.336075 
M131.971786,234.162949 
	C130.558487,233.777832 129.149017,233.075546 127.731285,233.058426 
	C117.514839,232.935043 107.296707,232.950485 97.010544,231.996780 
	C97.010544,225.427795 97.010544,218.858810 97.010544,212.409653 
	C91.914436,212.409653 87.540146,212.409653 82.991035,212.409653 
	C82.991035,219.452209 82.991035,226.086685 82.909035,232.792206 
	C82.909035,232.792206 82.960152,232.887909 82.032562,232.989899 
	C74.333328,232.996094 66.633514,232.956589 58.935436,233.054062 
	C57.671974,233.070038 56.416142,233.688477 55.008575,234.934158 
	C55.008575,237.866974 55.008575,240.799805 55.008575,243.980392 
	C80.509361,243.980392 105.447571,243.985825 130.385681,243.940079 
	C130.866867,243.939209 131.346939,243.335266 131.969574,242.135101 
	C131.927399,239.771378 131.885239,237.407639 131.971786,234.162949 
M295.486023,234.842102 
	C313.972290,234.923431 332.458527,235.004776 350.623749,235.849335 
	C350.366119,239.161148 350.108521,242.472977 349.856842,245.708420 
	C355.042938,245.708420 359.418213,245.708420 363.864929,245.708420 
	C363.864929,238.612747 363.864929,231.847946 363.684967,224.208420 
	C341.466187,224.134537 319.247406,224.052322 297.028595,224.029694 
	C296.405090,224.029068 295.780975,224.665482 295.056366,225.511932 
	C295.094055,225.680099 295.131775,225.848251 295.027954,226.879715 
	C295.073944,228.917328 295.119934,230.954956 295.052490,233.519684 
	C295.091003,233.695282 295.129486,233.870880 295.486023,234.842102 
M192.743240,181.289185 
	C192.491394,181.984146 192.021851,182.678482 192.019806,183.374176 
	C191.977997,197.685135 191.974457,211.996307 192.028381,226.307190 
	C192.031555,227.146606 192.584015,227.983948 193.806519,228.952866 
	C196.873047,228.963715 199.946350,229.084808 203.000717,228.897507 
	C203.654724,228.857407 204.240189,227.699692 204.996979,226.121567 
	C205.004959,212.921585 205.045197,199.721420 204.975174,186.521851 
	C204.967468,185.068253 204.328186,183.617996 203.083984,182.026505 
	C199.774658,182.009216 196.465332,181.991928 192.743240,181.289185 
M190.709778,245.972351 
	C192.155945,245.681046 193.602112,245.389740 195.877213,245.037247 
	C199.534760,243.683533 203.192307,242.329834 206.971436,240.105286 
	C206.971436,238.155777 206.971436,236.206284 206.971436,233.699738 
	C202.920883,234.615128 199.471771,235.394592 195.503769,236.011612 
	C195.332520,235.952286 195.161255,235.892975 195.006348,235.062439 
	C182.535583,235.043961 170.064804,235.015457 157.594131,235.041901 
	C157.070267,235.042999 156.547501,235.555588 155.552292,235.950714 
	C155.552292,235.950714 155.065170,235.942963 155.018280,235.027588 
	C155.018280,231.762894 155.018280,228.498199 155.018280,225.280334 
	C150.380569,225.280334 146.318207,225.280334 142.310425,225.280334 
	C142.310425,232.294952 142.310425,239.015930 142.310425,245.830292 
	C158.394073,245.830292 174.162582,245.830292 190.709778,245.972351 
M180.976349,219.063858 
	C180.929993,207.034729 180.883652,195.005615 180.582764,182.147339 
	C165.859543,182.147339 151.136322,182.147339 136.363739,182.147339 
	C136.363739,195.316574 136.363739,208.010818 136.363739,220.987579 
	C150.979431,220.987579 165.249084,220.996552 179.518524,220.945557 
	C179.960129,220.943985 180.399506,220.320663 180.976349,219.063858 
M60.306168,184.787659 
	C60.256367,187.518921 60.206570,190.250168 60.426201,193.808762 
	C77.942360,193.921951 95.458511,194.035141 112.645271,194.828873 
	C111.610596,205.081879 110.575920,215.334885 109.494827,226.047852 
	C112.844078,226.047852 116.239067,226.047852 119.837296,226.047852 
	C120.380478,225.296875 121.425446,224.362274 121.838806,223.202530 
	C126.447815,210.271515 125.446152,196.899063 124.772232,183.563141 
	C124.764893,183.417999 124.240372,183.298996 123.033417,183.035919 
	C103.371521,183.028961 83.709572,183.002991 64.047852,183.058258 
	C62.750221,183.061905 61.454327,183.685059 60.306168,184.787659 
z"/>
<path fill="#ED723F" opacity="1.000000" stroke="none" 
	d="
M225.951141,245.090851 
	C218.473480,244.584091 216.004654,242.460220 215.997162,236.527756 
	C215.982239,224.704437 217.351013,223.384720 229.392899,222.987991 
	C233.655121,222.847580 237.918732,222.447525 242.146622,221.896637 
	C242.774353,221.814835 243.207870,220.242569 242.884064,219.228134 
	C232.372711,219.133896 222.708572,219.171387 213.044418,219.208862 
	C213.044418,219.208862 212.881958,219.213715 212.818420,218.924561 
	C212.628433,218.363724 212.434952,218.153778 212.174438,218.005585 
	C212.126663,215.958054 212.078888,213.910522 212.277161,211.314270 
	C212.739288,210.578583 212.891174,210.349121 213.444946,210.011993 
	C238.276031,209.977615 262.640991,210.008408 286.997864,210.486115 
	C286.993042,213.619583 286.996368,216.306168 286.531921,219.024292 
	C276.721069,219.099091 267.377991,219.142349 258.034882,219.185608 
	C257.587036,220.211411 257.139191,221.237213 256.600555,222.470901 
	C264.075134,223.006638 270.911835,223.566345 277.757904,223.965485 
	C283.322388,224.289902 285.764374,227.056412 285.028351,232.485779 
	C284.984009,232.812836 285.018433,233.149796 285.000916,233.481354 
	C284.528564,242.425110 284.528229,242.425095 275.131409,244.763184 
	C273.811920,244.345993 273.175812,244.044693 272.539032,244.043274 
	C258.066223,244.010895 243.593231,243.988602 229.120667,244.052383 
	C228.062637,244.057068 227.007584,244.729095 225.951141,245.090851 
M234.589539,237.517380 
	C241.652908,237.678452 248.716446,237.958023 255.779602,237.949142 
	C259.159332,237.944901 262.538422,237.394043 266.319580,236.866425 
	C266.597595,236.706024 266.790619,236.474716 267.569824,236.049850 
	C268.441315,235.315292 269.312836,234.580734 270.001953,233.027847 
	C269.470703,232.712265 268.940735,232.123779 268.407990,232.121231 
	C256.663391,232.064819 244.918152,232.038345 233.174316,232.146255 
	C232.372345,232.153610 231.580475,233.261307 230.332306,234.313385 
	C231.564514,234.930618 232.796722,235.547852 234.018814,236.544022 
	C234.018814,236.544022 233.994553,236.922318 234.589539,237.517380 
M271.486511,231.551834 
	C271.486511,231.551834 271.446472,231.476013 271.486511,231.551834 
M229.490250,231.553818 
	C229.490250,231.553818 229.449280,231.476135 229.490250,231.553818 
z"/>
<path fill="#ED723F" opacity="1.000000" stroke="none" 
	d="
M368.843109,211.038406 
	C368.892365,213.725647 368.941589,216.412903 368.605164,219.529861 
	C367.802094,219.924957 367.384674,219.890320 366.643799,219.601318 
	C364.508881,219.230682 362.697479,219.015411 360.885834,219.013321 
	C340.125305,218.989273 319.364777,218.992279 298.604218,219.004593 
	C296.192230,219.006027 293.954346,219.209946 293.927094,215.598282 
	C293.901123,212.152405 295.816589,211.938156 298.407776,211.977707 
	C303.555176,212.056305 308.709137,212.130859 313.851654,211.953339 
	C317.236786,211.836472 320.606628,211.276077 323.970734,210.610352 
	C323.920563,209.902054 323.882965,209.497711 324.121399,208.851364 
	C325.522400,205.171036 323.077026,205.068710 320.886108,205.037277 
	C314.933472,204.951828 308.976318,204.898819 303.026123,205.044724 
	C300.042908,205.117874 298.887543,204.047684 298.957886,201.018204 
	C299.103729,194.737228 298.988617,188.450180 299.448151,182.112656 
	C319.954407,182.099136 339.993256,182.138596 360.022278,182.609131 
	C360.018219,185.636734 360.024017,188.233231 359.561432,190.876236 
	C343.386414,190.986038 327.679810,191.049347 311.973175,191.112656 
	C311.779785,191.103897 311.586365,191.095139 310.890381,191.456314 
	C310.317230,193.387253 310.246643,194.948242 310.151672,197.048096 
	C327.518799,197.048096 344.262787,197.048096 360.998779,197.493073 
	C360.981812,204.999359 360.978088,204.861603 354.064148,205.047943 
	C348.688019,205.192841 343.322571,205.736343 337.952393,206.102692 
	C337.952393,206.102692 337.534424,206.024521 336.980194,206.078796 
	C336.276398,207.416504 336.126831,208.699966 335.997742,210.201874 
	C336.018219,210.420334 335.993011,210.858459 336.282074,211.169006 
	C342.640717,211.652924 348.710999,211.975189 354.779663,211.947296 
	C358.821838,211.928711 362.861694,211.410675 367.225830,211.097778 
	C367.980408,211.065720 368.411774,211.052063 368.843109,211.038406 
z"/>
<path fill="#ED723F" opacity="1.000000" stroke="none" 
	d="
M217.156281,208.059570 
	C217.104233,206.566467 217.169357,205.057922 216.975296,203.583511 
	C216.593719,200.684509 218.003326,199.467773 220.678665,198.989700 
	C229.809143,197.358109 238.925507,195.646805 248.040085,193.927887 
	C249.148483,193.718842 250.213181,193.278137 252.027649,192.833572 
	C253.588730,192.419861 254.420319,192.117371 256.625061,191.315369 
	C253.728088,191.089935 252.324356,190.980682 250.603729,190.617310 
	C241.217667,190.532654 232.148514,190.702133 222.695541,190.934357 
	C221.535629,190.976410 220.759521,190.955765 219.996323,190.495483 
	C219.995407,187.431061 219.981567,184.806274 220.435684,182.128571 
	C239.643097,182.059296 258.382599,182.019257 277.121887,182.069717 
	C278.694061,182.073944 280.264618,182.686447 281.835907,183.016357 
	C282.043976,189.746170 276.693939,192.214767 271.214569,195.876343 
	C275.469421,196.729309 278.765320,197.292953 282.010742,198.068024 
	C285.229919,198.836838 286.502625,200.930420 286.019867,204.279663 
	C285.495789,207.915695 282.731567,207.151749 280.654175,206.923340 
	C275.493256,206.355865 270.096252,206.170212 265.306458,204.424957 
	C258.824829,202.063263 252.822464,202.985153 246.425156,204.152573 
	C237.305161,205.816864 228.055222,206.769226 218.218552,208.067352 
	C217.576309,208.109055 217.156265,208.059570 217.156281,208.059570 
z"/>
<path fill="#ED723F" opacity="1.000000" stroke="none" 
	d="
M123.957283,183.167801 
	C124.240372,183.298996 124.764893,183.417999 124.772232,183.563141 
	C125.446152,196.899063 126.447815,210.271515 121.838806,223.202530 
	C121.425446,224.362274 120.380478,225.296875 119.837296,226.047852 
	C116.239067,226.047852 112.844078,226.047852 109.494827,226.047852 
	C110.575920,215.334885 111.610596,205.081879 112.812759,194.207275 
	C112.987801,193.398392 112.995369,193.211136 112.695328,192.741211 
	C111.750069,192.311203 111.112663,192.036453 110.474724,192.035233 
	C95.404625,192.006287 80.334412,191.987518 65.264488,192.042770 
	C64.192978,192.046692 63.123608,192.633728 61.737141,192.954742 
	C60.999615,192.967041 60.578194,192.974228 60.156773,192.981415 
	C60.206570,190.250168 60.256367,187.518921 60.690231,184.400146 
	C80.112724,183.997375 99.151245,184.004761 118.189461,183.932098 
	C120.113007,183.924759 122.034721,183.434143 123.957283,183.167801 
z"/>
<path fill="#ED723F" opacity="1.000000" stroke="none" 
	d="
M131.827515,243.012695 
	C131.346939,243.335266 130.866867,243.939209 130.385681,243.940079 
	C105.447571,243.985825 80.509361,243.980392 55.008575,243.980392 
	C55.008575,240.799805 55.008575,237.866974 55.405323,234.489990 
	C56.232136,234.066238 56.662197,234.086639 57.400089,234.369873 
	C66.137833,234.429153 74.567741,234.225632 83.003235,233.738068 
	C82.992592,233.265305 82.976372,233.076614 82.960152,232.887909 
	C82.960152,232.887909 82.909035,232.792206 83.333359,232.721405 
	C84.170876,231.337875 84.883720,230.037964 84.940437,228.710007 
	C85.102798,224.907944 85.149330,221.086761 84.953659,217.287918 
	C84.788513,214.081543 85.972031,213.070801 89.209908,212.887589 
	C93.737671,212.631378 95.296303,214.038025 95.132339,218.705978 
	C94.963432,223.514648 95.863914,228.360886 96.362427,233.359467 
	C96.591064,233.716171 96.780991,233.870605 97.306290,234.272278 
	C106.057518,234.703415 114.502510,235.026428 122.942917,234.933487 
	C127.345802,234.885010 131.127731,234.761917 130.140671,240.956299 
	C130.048080,241.537415 131.234772,242.322372 131.827515,243.012695 
z"/>
<path fill="#ED723F" opacity="1.000000" stroke="none" 
	d="
M363.864929,225.083145 
	C363.864929,231.847946 363.864929,238.612747 363.864929,245.708420 
	C359.418213,245.708420 355.042938,245.708420 349.856842,245.708420 
	C350.108521,242.472977 350.366119,239.161148 350.795044,235.208832 
	C350.978882,234.395828 350.991455,234.223358 350.700928,233.761688 
	C348.596527,233.316666 346.795502,233.029709 344.993805,233.025497 
	C328.384583,232.986664 311.775238,232.996719 295.165924,232.992569 
	C295.119934,230.954956 295.073944,228.917328 295.556274,226.444489 
	C316.267670,226.005951 336.450836,226.023712 356.633728,225.962067 
	C358.374695,225.956741 360.114075,225.425644 362.189392,225.128510 
	C362.971375,225.106537 363.418152,225.094833 363.864929,225.083145 
z"/>
<path fill="#ED723F" opacity="1.000000" stroke="none" 
	d="
M194.990005,235.833679 
	C195.161255,235.892975 195.332520,235.952286 196.065643,236.320786 
	C199.202667,236.629959 201.777802,236.629959 203.962097,236.629959 
	C205.007721,238.203644 205.928772,239.589890 206.849838,240.976135 
	C203.192307,242.329834 199.534760,243.683533 195.161499,244.771729 
	C188.498917,244.338287 182.552856,244.074936 176.605011,244.024139 
	C166.977890,243.941910 157.346161,244.120575 147.725861,243.851044 
	C146.459778,243.815567 144.066254,241.593353 144.211670,240.719543 
	C144.967194,236.179718 141.024872,230.225250 146.429443,227.290695 
	C150.576874,225.038742 152.709915,227.265625 153.037170,232.301254 
	C153.118286,233.549484 153.670227,234.767120 154.270844,235.989502 
	C154.712372,235.967789 154.888779,235.955368 155.065170,235.942963 
	C155.065170,235.942963 155.552292,235.950714 156.253128,235.938354 
	C169.632645,235.895218 182.311325,235.864456 194.990005,235.833679 
z"/>
<path fill="#ED723F" opacity="1.000000" stroke="none" 
	d="
M203.981812,182.166199 
	C204.328186,183.617996 204.967468,185.068253 204.975174,186.521851 
	C205.045197,199.721420 205.004959,212.921585 204.475647,226.569748 
	C202.796112,227.011063 201.637939,227.000290 200.479721,226.997955 
	C194.009613,226.984863 194.004532,226.985580 194.001785,220.515945 
	C193.997406,210.256943 193.973175,199.997849 194.010742,189.738983 
	C194.033813,183.434525 193.004257,182.691177 200.712097,182.948090 
	C201.792130,182.984070 202.891434,182.441147 203.981812,182.166199 
z"/>
<path fill="#F7C4AE" opacity="1.000000" stroke="none" 
	d="
M180.839920,219.987213 
	C180.399506,220.320663 179.960129,220.943985 179.518524,220.945557 
	C165.249084,220.996552 150.979431,220.987579 136.363739,220.987579 
	C136.363739,208.010818 136.363739,195.316574 136.363739,182.147339 
	C151.136322,182.147339 165.859543,182.147339 180.492416,182.568832 
	C180.402069,182.990326 179.969131,183.037262 179.504669,182.991318 
	C165.135284,182.945374 151.230362,182.945374 137.287842,182.945374 
	C137.287842,195.612671 137.287842,207.642380 137.287842,219.925125 
	C151.729858,219.925125 165.835953,219.925125 180.165924,219.949203 
	C180.389801,219.973282 180.839920,219.987213 180.839920,219.987213 
z"/>
<path fill="#EB5F26" opacity="1.000000" stroke="none" 
	d="
M323.983307,210.914291 
	C320.606628,211.276077 317.236786,211.836472 313.851654,211.953339 
	C308.709137,212.130859 303.555176,212.056305 298.407776,211.977707 
	C295.816589,211.938156 293.901123,212.152405 293.927094,215.598282 
	C293.954346,219.209946 296.192230,219.006027 298.604218,219.004593 
	C319.364777,218.992279 340.125305,218.989273 360.885834,219.013321 
	C362.697479,219.015411 364.508881,219.230682 366.181274,219.664902 
	C341.416473,219.990936 316.790741,219.999008 292.165039,220.007095 
	C292.120239,217.304916 292.075439,214.602753 292.554504,211.438232 
	C303.380005,210.955368 313.681671,210.934830 323.983307,210.914291 
z"/>
<path fill="#EC662F" opacity="1.000000" stroke="none" 
	d="
M298.980774,182.165634 
	C298.988617,188.450180 299.103729,194.737228 298.957886,201.018204 
	C298.887543,204.047684 300.042908,205.117874 303.026123,205.044724 
	C308.976318,204.898819 314.933472,204.951828 320.886108,205.037277 
	C323.077026,205.068710 325.522400,205.171036 323.952820,208.831818 
	C323.508209,209.054260 323.167450,209.043091 323.167450,209.043091 
	C321.951752,208.364334 320.754120,207.139862 319.517334,207.098984 
	C313.375214,206.895996 307.220795,206.913284 301.074768,207.043381 
	C298.076508,207.106842 296.899323,205.968063 296.962372,202.947464 
	C297.101105,196.302902 297.020477,189.653732 297.400635,182.538361 
	C298.174866,182.102066 298.577820,182.133850 298.980774,182.165634 
z"/>
<path fill="#EC662F" opacity="1.000000" stroke="none" 
	d="
M154.005737,235.998810 
	C153.670227,234.767120 153.118286,233.549484 153.037170,232.301254 
	C152.709915,227.265625 150.576874,225.038742 146.429443,227.290695 
	C141.024872,230.225250 144.967194,236.179718 144.211670,240.719543 
	C144.066254,241.593353 146.459778,243.815567 147.725861,243.851044 
	C157.346161,244.120575 166.977890,243.941910 176.605011,244.024139 
	C182.552856,244.074936 188.498917,244.338287 194.747009,244.802322 
	C193.602112,245.389740 192.155945,245.681046 189.996735,245.653290 
	C187.466400,245.224197 185.649338,245.023132 183.831802,245.018860 
	C171.683304,244.990250 159.533264,245.090836 147.388046,244.889053 
	C145.926468,244.864761 143.315933,243.369003 143.239075,242.397003 
	C142.825043,237.161469 143.043182,231.875961 143.043182,226.342133 
	C146.916077,226.342133 150.138718,226.342133 154.005737,226.342133 
	C154.005737,229.765213 154.005737,232.882004 154.005737,235.998810 
z"/>
<path fill="#EB5F26" opacity="1.000000" stroke="none" 
	d="
M96.296494,233.190674 
	C95.863914,228.360886 94.963432,223.514648 95.132339,218.705978 
	C95.296303,214.038025 93.737671,212.631378 89.209908,212.887589 
	C85.972031,213.070801 84.788513,214.081543 84.953659,217.287918 
	C85.149330,221.086761 85.102798,224.907944 84.940437,228.710007 
	C84.883720,230.037964 84.170876,231.337875 83.374359,232.685883 
	C82.991035,226.086685 82.991035,219.452209 82.991035,212.409653 
	C87.540146,212.409653 91.914436,212.409653 97.010544,212.409653 
	C97.010544,218.858810 97.010544,225.427795 96.855286,232.544159 
	C96.700027,233.091553 96.296494,233.190674 96.296494,233.190674 
z"/>
<path fill="#F38F64" opacity="1.000000" stroke="none" 
	d="
M154.270844,235.989502 
	C154.005737,232.882004 154.005737,229.765213 154.005737,226.342133 
	C150.138718,226.342133 146.916077,226.342133 143.043182,226.342133 
	C143.043182,231.875961 142.825043,237.161469 143.239075,242.397003 
	C143.315933,243.369003 145.926468,244.864761 147.388046,244.889053 
	C159.533264,245.090836 171.683304,244.990250 183.831802,245.018860 
	C185.649338,245.023132 187.466400,245.224197 189.607391,245.582245 
	C174.162582,245.830292 158.394073,245.830292 142.310425,245.830292 
	C142.310425,239.015930 142.310425,232.294952 142.310425,225.280334 
	C146.318207,225.280334 150.380569,225.280334 155.018280,225.280334 
	C155.018280,228.498199 155.018280,231.762894 155.041718,235.485275 
	C154.888779,235.955368 154.712372,235.967789 154.270844,235.989502 
z"/>
<path fill="#FED8D5" opacity="1.000000" stroke="none" 
	d="
M216.975815,208.391663 
	C217.156265,208.059570 217.576309,208.109055 217.786011,208.135315 
	C219.516418,208.444183 221.036469,208.968903 222.557892,208.972900 
	C243.311661,209.027222 264.065643,208.998520 284.819489,209.031143 
	C286.409119,209.033646 287.998322,209.343704 289.587708,209.510803 
	C289.569214,209.634567 289.583832,209.778275 289.524261,209.877365 
	C289.440857,210.016068 289.302124,210.121536 288.766052,210.478897 
	C287.898682,210.490784 287.452332,210.264999 287.005981,210.039215 
	C262.640991,210.008408 238.276031,209.977615 213.242310,209.956848 
	C212.573563,209.966858 212.155914,209.921829 212.155914,209.921814 
	C213.702393,209.522461 215.248886,209.123108 216.975815,208.391663 
z"/>
<path fill="#EB5F26" opacity="1.000000" stroke="none" 
	d="
M203.532898,182.096344 
	C202.891434,182.441147 201.792130,182.984070 200.712097,182.948090 
	C193.004257,182.691177 194.033813,183.434525 194.010742,189.738983 
	C193.973175,199.997849 193.997406,210.256943 194.001785,220.515945 
	C194.004532,226.985580 194.009613,226.984863 200.479721,226.997955 
	C201.637939,227.000290 202.796112,227.011063 204.405762,227.037384 
	C204.240189,227.699692 203.654724,228.857407 203.000717,228.897507 
	C199.946350,229.084808 196.873047,228.963715 193.355957,228.429810 
	C192.988922,212.596054 193.072464,197.285355 193.156006,181.974640 
	C196.465332,181.991928 199.774658,182.009216 203.532898,182.096344 
z"/>
<path fill="#F7C4AE" opacity="1.000000" stroke="none" 
	d="
M292.283691,220.426971 
	C316.790741,219.999008 341.416473,219.990936 366.504700,219.919281 
	C367.384674,219.890320 367.802094,219.924957 368.533325,219.972366 
	C368.238251,220.324493 367.629272,220.960480 367.020386,220.960419 
	C342.147705,220.958328 317.274994,220.898956 292.283691,220.426971 
z"/>
<path fill="#F38F64" opacity="1.000000" stroke="none" 
	d="
M363.774963,224.645782 
	C363.418152,225.094833 362.971375,225.106537 361.736694,225.087845 
	C339.018250,225.039932 317.087708,225.022385 295.157135,225.004837 
	C295.780975,224.665482 296.405090,224.029068 297.028595,224.029694 
	C319.247406,224.052322 341.466187,224.134537 363.774963,224.645782 
z"/>
<path fill="#FED8D5" opacity="1.000000" stroke="none" 
	d="
M282.006989,182.675720 
	C280.264618,182.686447 278.694061,182.073944 277.121887,182.069717 
	C258.382599,182.019257 239.643097,182.059296 220.113312,182.063354 
	C218.888977,182.092392 218.454971,182.133728 218.020966,182.175049 
	C219.046021,181.776367 220.069824,181.033768 221.096313,181.030029 
	C239.703629,180.962067 258.311279,180.992691 276.918823,180.971130 
	C278.917328,180.968826 280.915619,180.773270 283.295044,180.647156 
	C282.840027,181.334732 282.509064,181.834900 282.006989,182.675720 
z"/>
<path fill="#EB5F26" opacity="1.000000" stroke="none" 
	d="
M295.106750,225.258392 
	C317.087708,225.022385 339.018250,225.039932 361.401489,225.098114 
	C360.114075,225.425644 358.374695,225.956741 356.633728,225.962067 
	C336.450836,226.023712 316.267670,226.005951 295.627045,226.012833 
	C295.131775,225.848251 295.094055,225.680099 295.106750,225.258392 
z"/>
<path fill="#EC662F" opacity="1.000000" stroke="none" 
	d="
M338.198486,206.459045 
	C343.322571,205.736343 348.688019,205.192841 354.064148,205.047943 
	C360.978088,204.861603 360.981812,204.999359 361.301697,197.446838 
	C362.020294,196.981155 362.427948,197.006729 362.835602,197.032288 
	C363.366608,209.430466 363.183594,206.792709 353.381653,206.978729 
	C348.405457,207.073181 343.423767,206.879044 338.198486,206.459045 
z"/>
<path fill="#FED8D5" opacity="1.000000" stroke="none" 
	d="
M299.448151,182.112656 
	C298.577820,182.133850 298.174866,182.102066 297.467468,182.079636 
	C297.890594,181.722870 298.617981,181.037567 299.345795,181.037109 
	C319.752777,181.024277 340.159821,181.080704 360.540649,181.570175 
	C360.353668,182.069061 360.192902,182.123550 360.032135,182.178055 
	C339.993256,182.138596 319.954407,182.099136 299.448151,182.112656 
z"/>
<path fill="#F38F64" opacity="1.000000" stroke="none" 
	d="
M123.495346,183.101868 
	C122.034721,183.434143 120.113007,183.924759 118.189461,183.932098 
	C99.151245,184.004761 80.112724,183.997375 60.615959,184.016357 
	C61.454327,183.685059 62.750221,183.061905 64.047852,183.058258 
	C83.709572,183.002991 103.371521,183.028961 123.495346,183.101868 
z"/>
<path fill="#FED8D5" opacity="1.000000" stroke="none" 
	d="
M362.756592,196.596497 
	C362.427948,197.006729 362.020294,196.981155 361.309692,197.001846 
	C344.262787,197.048096 327.518799,197.048096 310.151672,197.048096 
	C310.246643,194.948242 310.317230,193.387253 310.611328,191.536697 
	C310.939240,192.718872 311.043701,194.190613 311.183533,196.160690 
	C328.406494,196.160690 345.542053,196.160690 362.756592,196.596497 
z"/>
<path fill="#EC662F" opacity="1.000000" stroke="none" 
	d="
M226.150574,245.415604 
	C227.007584,244.729095 228.062637,244.057068 229.120667,244.052383 
	C243.593231,243.988602 258.066223,244.010895 272.539032,244.043274 
	C273.175812,244.044693 273.811920,244.345993 274.749023,244.804565 
	C273.916504,245.391647 272.783356,245.681793 270.954865,245.653641 
	C259.138916,245.225052 248.018387,245.067047 236.897598,245.044205 
	C234.637939,245.039566 232.377243,245.544418 230.117020,245.814392 
	C228.861343,245.789703 227.605667,245.765030 226.150574,245.415604 
z"/>
<path fill="#F4A785" opacity="1.000000" stroke="none" 
	d="
M351.004028,234.050903 
	C350.991455,234.223358 350.978882,234.395828 350.955566,234.827209 
	C332.458527,235.004776 313.972290,234.923431 295.784668,234.438568 
	C314.390228,234.040314 332.697144,234.045609 351.004028,234.050903 
z"/>
<path fill="#EB5F26" opacity="1.000000" stroke="none" 
	d="
M350.700928,233.761688 
	C332.697144,234.045609 314.390228,234.040314 295.625641,234.040741 
	C295.129486,233.870880 295.091003,233.695282 295.109192,233.256134 
	C311.775238,232.996719 328.384583,232.986664 344.993805,233.025497 
	C346.795502,233.029709 348.596527,233.316666 350.700928,233.761688 
z"/>
<path fill="#F38F64" opacity="1.000000" stroke="none" 
	d="
M113.002930,193.023895 
	C112.995369,193.211136 112.987801,193.398392 112.977455,193.867004 
	C95.458511,194.035141 77.942360,193.921951 60.291489,193.395081 
	C60.578194,192.974228 60.999615,192.967041 62.199387,192.977478 
	C79.652802,193.004700 96.327866,193.014297 113.002930,193.023895 
z"/>
<path fill="#FED8D5" opacity="1.000000" stroke="none" 
	d="
M312.168396,191.503586 
	C327.679810,191.049347 343.386414,190.986038 359.885681,190.922958 
	C361.110870,190.882065 361.543457,190.840942 361.976044,190.799835 
	C362.620514,190.960175 363.265015,191.120529 363.909485,191.280869 
	C363.587250,191.485413 363.264984,191.689972 362.942749,191.894516 
	C346.083038,191.894516 329.223328,191.894516 312.168396,191.503586 
z"/>
<path fill="#EC662F" opacity="1.000000" stroke="none" 
	d="
M131.898544,242.573898 
	C131.234772,242.322372 130.048080,241.537415 130.140671,240.956299 
	C131.127731,234.761917 127.345802,234.885010 122.942917,234.933487 
	C114.502510,235.026428 106.057518,234.703415 97.775040,234.262848 
	C107.511185,233.969543 117.087280,233.913315 126.661766,234.011978 
	C128.392227,234.029816 130.116150,234.683670 131.843079,235.043915 
	C131.885239,237.407639 131.927399,239.771378 131.898544,242.573898 
z"/>
<path fill="#F4A785" opacity="1.000000" stroke="none" 
	d="
M192.949615,181.631912 
	C193.072464,197.285355 192.988922,212.596054 192.893112,228.364517 
	C192.584015,227.983948 192.031555,227.146606 192.028381,226.307190 
	C191.974457,211.996307 191.977997,197.685135 192.019806,183.374176 
	C192.021851,182.678482 192.491394,181.984146 192.949615,181.631912 
z"/>
<path fill="#F38F64" opacity="1.000000" stroke="none" 
	d="
M230.571365,245.884613 
	C232.377243,245.544418 234.637939,245.039566 236.897598,245.044205 
	C248.018387,245.067047 259.138916,245.225052 270.582825,245.579834 
	C257.612610,245.867798 244.319168,245.911301 230.571365,245.884613 
z"/>
<path fill="#F7C4AE" opacity="1.000000" stroke="none" 
	d="
M250.920609,190.871445 
	C252.324356,190.980682 253.728088,191.089935 256.625061,191.315369 
	C254.420319,192.117371 253.588730,192.419861 252.430450,192.710541 
	C246.041336,192.465225 239.980484,192.169998 233.916046,192.017151 
	C228.767273,191.887375 223.614380,191.921921 218.615631,191.471191 
	C219.173126,191.017441 219.578262,190.976273 219.983414,190.935104 
	C220.759521,190.955765 221.535629,190.976410 223.156158,190.973358 
	C232.973923,190.923584 241.947266,190.897522 250.920609,190.871445 
z"/>
<path fill="#FED8D5" opacity="1.000000" stroke="none" 
	d="
M194.998169,235.448059 
	C182.311325,235.864456 169.632645,235.895218 156.489105,235.877930 
	C156.547501,235.555588 157.070267,235.042999 157.594131,235.041901 
	C170.064804,235.015457 182.535583,235.043961 194.998169,235.448059 
z"/>
<path fill="#F38F64" opacity="1.000000" stroke="none" 
	d="
M179.969131,183.037262 
	C179.969131,183.037262 180.402069,182.990326 180.619690,182.983398 
	C180.883652,195.005615 180.929993,207.034729 180.908142,219.525543 
	C180.839920,219.987213 180.389801,219.973282 180.185242,219.486557 
	C179.976837,207.012314 179.972977,195.024780 179.969131,183.037262 
z"/>
<path fill="#F4A785" opacity="1.000000" stroke="none" 
	d="
M131.907440,234.603424 
	C130.116150,234.683670 128.392227,234.029816 126.661766,234.011978 
	C117.087280,233.913315 107.511185,233.969543 97.466896,233.982147 
	C96.780991,233.870605 96.591064,233.716171 96.362427,233.359467 
	C96.296494,233.190674 96.700027,233.091553 96.889572,233.006744 
	C107.296707,232.950485 117.514839,232.935043 127.731285,233.058426 
	C129.149017,233.075546 130.558487,233.777832 131.907440,234.603424 
z"/>
<path fill="#F4A785" opacity="1.000000" stroke="none" 
	d="
M368.725159,210.615967 
	C368.411774,211.052063 367.980408,211.065720 366.768372,211.050476 
	C355.989471,210.967209 345.991241,210.912827 335.993011,210.858459 
	C335.993011,210.858459 336.018219,210.420334 336.095703,210.014450 
	C336.326569,209.355545 336.544281,209.184296 336.826294,209.094788 
	C339.011475,209.396423 341.192444,209.918579 343.382629,209.960587 
	C351.789215,210.121765 360.198761,210.128922 368.725159,210.615967 
z"/>
<path fill="#F4A785" opacity="1.000000" stroke="none" 
	d="
M322.919891,209.410248 
	C323.167450,209.043091 323.508209,209.054260 323.676788,209.073807 
	C323.882965,209.497711 323.920563,209.902054 323.970734,210.610352 
	C313.681671,210.934830 303.380005,210.955368 292.620972,210.992462 
	C293.598358,210.672607 295.028198,210.070007 296.468689,210.043350 
	C305.201874,209.881714 313.937531,209.851517 322.919891,209.410248 
z"/>
<path fill="#FED8D5" opacity="1.000000" stroke="none" 
	d="
M258.263672,219.543823 
	C267.377991,219.142349 276.721069,219.099091 286.827576,219.121063 
	C288.005096,219.209824 288.419220,219.233337 288.833313,219.256866 
	C281.846436,219.499954 274.860657,219.783936 267.872223,219.967499 
	C264.748383,220.049576 261.619232,219.930038 258.263672,219.543823 
z"/>
<path fill="#FED8D5" opacity="1.000000" stroke="none" 
	d="
M213.279388,219.560822 
	C222.708572,219.171387 232.372711,219.133896 242.501328,219.139313 
	C238.620728,219.450180 234.278671,219.855942 229.929825,219.951324 
	C224.460907,220.071243 218.986450,219.937241 213.279388,219.560822 
z"/>
<path fill="#F4A785" opacity="1.000000" stroke="none" 
	d="
M82.496353,232.938904 
	C82.976372,233.076614 82.992592,233.265305 82.534958,233.729080 
	C73.738152,234.038437 65.415207,234.072723 57.092262,234.107025 
	C56.662197,234.086639 56.232136,234.066238 55.479424,234.037155 
	C56.416142,233.688477 57.671974,233.070038 58.935436,233.054062 
	C66.633514,232.956589 74.333328,232.996094 82.496353,232.938904 
z"/>
<path fill="#EC662F" opacity="1.000000" stroke="none" 
	d="
M206.910645,240.540710 
	C205.928772,239.589890 205.007721,238.203644 203.962097,236.629959 
	C201.777802,236.629959 199.202667,236.629959 196.325089,236.402008 
	C199.471771,235.394592 202.920883,234.615128 206.971436,233.699738 
	C206.971436,236.206284 206.971436,238.155777 206.910645,240.540710 
z"/>
<path fill="#EB5F26" opacity="1.000000" stroke="none" 
	d="
M219.996323,190.495483 
	C219.578262,190.976273 219.173126,191.017441 218.462219,191.069000 
	C218.105911,188.403900 218.055344,185.728424 218.012878,182.613983 
	C218.454971,182.133728 218.888977,182.092392 219.645355,182.116272 
	C219.981567,184.806274 219.995407,187.431061 219.996323,190.495483 
z"/>
<path fill="#EB5F26" opacity="1.000000" stroke="none" 
	d="
M361.984070,190.370667 
	C361.543457,190.840942 361.110870,190.882065 360.354065,190.876465 
	C360.024017,188.233231 360.018219,185.636734 360.022278,182.609131 
	C360.192902,182.123550 360.353668,182.069061 360.759521,181.945160 
	C361.333740,184.564316 361.662933,187.252914 361.984070,190.370667 
z"/>
<path fill="#EC662F" opacity="1.000000" stroke="none" 
	d="
M288.891785,218.792221 
	C288.419220,219.233337 288.005096,219.209824 287.295349,219.089508 
	C286.996368,216.306168 286.993042,213.619583 286.997864,210.486115 
	C287.452332,210.264999 287.898682,210.490784 288.590576,210.823654 
	C288.874146,213.396362 288.912201,215.861969 288.891785,218.792221 
z"/>
<path fill="#EC662F" opacity="1.000000" stroke="none" 
	d="
M336.894806,208.715424 
	C336.544281,209.184296 336.326569,209.355545 336.075256,209.795990 
	C336.126831,208.699966 336.276398,207.416504 336.767609,206.082153 
	C337.060608,206.799515 337.011963,207.567795 336.894806,208.715424 
z"/>
<path fill="#EC662F" opacity="1.000000" stroke="none" 
	d="
M212.136383,218.244324 
	C212.434952,218.153778 212.628433,218.363724 212.793274,218.847260 
	C212.488144,218.993332 212.243683,218.801315 212.136383,218.244324 
z"/>
<path fill="#EC662F" opacity="1.000000" stroke="none" 
	d="
M212.104889,210.191254 
	C212.155914,209.921829 212.573563,209.966858 212.776215,210.022018 
	C212.891174,210.349121 212.739288,210.578583 212.349136,210.880585 
	C212.134674,210.817307 212.094269,210.638992 212.104889,210.191254 
z"/>
<path fill="#000000" opacity="1.000000" stroke="none" 
	d="
M270.184326,233.846161 
	C269.312836,234.580734 268.441315,235.315292 266.780090,236.030441 
	C255.336533,236.062393 244.682724,236.113739 234.028931,236.165100 
	C232.796722,235.547852 231.564514,234.930618 231.006119,234.091248 
	C233.228333,233.578888 234.774582,233.051575 236.325470,233.037598 
	C245.235916,232.957230 254.148087,232.940414 263.058197,233.037399 
	C265.436249,233.063293 267.809082,233.563644 270.184326,233.846161 
z"/>
<path fill="#FED8D5" opacity="1.000000" stroke="none" 
	d="
M270.093140,233.437012 
	C267.809082,233.563644 265.436249,233.063293 263.058197,233.037399 
	C254.148087,232.940414 245.235916,232.957230 236.325470,233.037598 
	C234.774582,233.051575 233.228333,233.578888 231.231918,233.863190 
	C231.580475,233.261307 232.372345,232.153610 233.174316,232.146255 
	C244.918152,232.038345 256.663391,232.064819 268.407990,232.121231 
	C268.940735,232.123779 269.470703,232.712265 270.093140,233.437012 
z"/>
<path fill="#F4A785" opacity="1.000000" stroke="none" 
	d="
M234.023865,236.354553 
	C244.682724,236.113739 255.336533,236.062393 266.444489,236.091766 
	C266.790619,236.474716 266.597595,236.706024 265.658630,236.961029 
	C254.663300,237.011215 244.328934,236.966766 233.994553,236.922318 
	C233.994553,236.922318 234.018814,236.544022 234.023865,236.354553 
z"/>
<path fill="#EB5F26" opacity="1.000000" stroke="none" 
	d="
M234.292053,237.219849 
	C244.328934,236.966766 254.663300,237.011215 265.457733,237.073212 
	C262.538422,237.394043 259.159332,237.944901 255.779602,237.949142 
	C248.716446,237.958023 241.652908,237.678452 234.292053,237.219849 
z"/>
<path fill="#EC662F" opacity="1.000000" stroke="none" 
	d="
M271.466492,231.513916 
	C271.446472,231.476013 271.486511,231.551834 271.466492,231.513916 
z"/>
<path fill="#EC662F" opacity="1.000000" stroke="none" 
	d="
M229.469757,231.514984 
	C229.449280,231.476135 229.490250,231.553818 229.469757,231.514984 
z"/>
<path fill="#EB5F26" opacity="1.000000" stroke="none" 
	d="
M336.282074,211.169006 
	C345.991241,210.912827 355.989471,210.967209 366.445129,211.068878 
	C362.861694,211.410675 358.821838,211.928711 354.779663,211.947296 
	C348.710999,211.975189 342.640717,211.652924 336.282074,211.169006 
z"/>
<path fill="#EB5F26" opacity="1.000000" stroke="none" 
	d="
M250.603729,190.617310 
	C241.947266,190.897522 232.973923,190.923584 223.539963,190.910645 
	C232.148514,190.702133 241.217667,190.532654 250.603729,190.617310 
z"/>
<path fill="#EC662F" opacity="1.000000" stroke="none" 
	d="
M112.695328,192.741211 
	C96.327866,193.014297 79.652802,193.004700 62.515495,192.972382 
	C63.123608,192.633728 64.192978,192.046692 65.264488,192.042770 
	C80.334412,191.987518 95.404625,192.006287 110.474724,192.035233 
	C111.112663,192.036453 111.750069,192.311203 112.695328,192.741211 
z"/>
<path fill="#EB5F26" opacity="1.000000" stroke="none" 
	d="
M57.400089,234.369843 
	C65.415207,234.072723 73.738152,234.038437 82.529373,234.013123 
	C74.567741,234.225632 66.137833,234.429153 57.400089,234.369843 
z"/>
<path fill="#EB5F26" opacity="1.000000" stroke="none" 
	d="
M179.504669,182.991318 
	C179.972977,195.024780 179.976837,207.012314 179.961365,219.462479 
	C165.835953,219.925125 151.729858,219.925125 137.287842,219.925125 
	C137.287842,207.642380 137.287842,195.612671 137.287842,182.945374 
	C151.230362,182.945374 165.135284,182.945374 179.504669,182.991318 
M169.454803,184.002441 
	C160.466629,184.002869 151.477356,184.082687 142.490875,183.959274 
	C139.480347,183.917938 137.870239,184.549805 137.941589,188.056747 
	C138.124359,197.041229 138.091492,206.033249 137.953903,215.019333 
	C137.906784,218.096558 139.091202,219.071320 142.066513,219.040527 
	C153.050903,218.926880 164.037994,218.919952 175.022171,219.043533 
	C178.090240,219.078064 179.106186,217.920319 179.052216,214.936432 
	C178.916794,207.448730 179.049942,199.956665 178.999725,192.466858 
	C178.935349,182.866241 180.128220,184.114166 169.454803,184.002441 
z"/>
<path fill="#ED723F" opacity="1.000000" stroke="none" 
	d="
M169.946457,184.002441 
	C180.128220,184.114166 178.935349,182.866241 178.999725,192.466858 
	C179.049942,199.956665 178.916794,207.448730 179.052216,214.936432 
	C179.106186,217.920319 178.090240,219.078064 175.022171,219.043533 
	C164.037994,218.919952 153.050903,218.926880 142.066513,219.040527 
	C139.091202,219.071320 137.906784,218.096558 137.953903,215.019333 
	C138.091492,206.033249 138.124359,197.041229 137.941589,188.056747 
	C137.870239,184.549805 139.480347,183.917938 142.490875,183.959274 
	C151.477356,184.082687 160.466629,184.002869 169.946457,184.002441 
M168.999725,200.534180 
	C168.999710,199.705475 168.999985,198.876755 168.999680,198.048050 
	C168.997055,191.002487 168.997009,191.002487 162.002563,191.000320 
	C161.505341,191.000153 161.008102,191.000290 160.510880,191.000275 
	C149.000244,191.000092 148.954987,191.000320 149.013336,202.484589 
	C149.068680,213.380096 147.639343,211.926407 158.497101,211.987015 
	C168.999435,212.045639 168.999695,211.999756 168.999725,200.534180 
z"/>
<path fill="none" opacity="1.000000" stroke="none" 
	d="
M168.999725,201.017151 
	C168.999695,211.999756 168.999435,212.045639 158.497101,211.987015 
	C147.639343,211.926407 149.068680,213.380096 149.013336,202.484589 
	C148.954987,191.000320 149.000244,191.000092 160.510880,191.000275 
	C161.008102,191.000290 161.505341,191.000153 162.002563,191.000320 
	C168.997009,191.002487 168.997055,191.002487 168.999680,198.048050 
	C168.999985,198.876755 168.999710,199.705475 168.999725,201.017151 
z"/>
</svg>